<svg viewBox="0 0 24 24" fill="none" stroke="currentColor" stroke-width="2" stroke-linecap="round" stroke-linejoin="round" class="lucide lucide-squircle-icon lucide-squircle" xml:space="preserve" xmlns="http://www.w3.org/2000/svg">
    <path style="fill:#fff;fill-opacity:1;stroke-width:1.99937008;stroke-dasharray:none;stroke:#fff;stroke-opacity:1" d="M12 3c-7.2 0-9 1.8-9 9 0 6.845 1.627 8.809 7.973 8.986l-2.655-6.824v-.002c-.67-1.685-.153-3.692.998-4.844.576-.575 1.366-.994 2.223-1.183a4.726 4.726 0 0 1 1.316-.104c.443.028.884.122 1.305.29h.002l6.824 2.654C20.81 4.627 18.845 3 12 3z"/>
    <path style="opacity:1;baseline-shift:baseline;display:inline;overflow:visible;vector-effect:none;fill:#fff;stroke:none;enable-background:accumulate;stop-color:#000;stop-opacity:1" d="M12.611 11.006a1.544 1.544 0 0 0-.437.035 1.513 1.513 0 0 0-.736.396 1.532 1.532 0 0 0-.333 1.614l3.497 8.992a1 1 0 0 0 .002.002c.238.61.875.973 1.449.953.574-.02 1.183-.426 1.379-1.053a1 1 0 0 0 0-.002l1.068-3.441a1 1 0 0 0 0-.002l3.443-1.068a1 1 0 0 0 .002 0c.627-.196 1.033-.805 1.053-1.38.02-.573-.342-1.21-.953-1.448a1 1 0 0 0-.002-.002l-8.992-3.497a1.441 1.441 0 0 0-.44-.1z" stroke="none"/>
</svg>